HIERARCHY
ROOT Hips
{
  OFFSET 0 33.962 0
  CHANNELS 6 Xposition Yposition Zposition Zrotation Xrotation Yrotation
  JOINT RightHipJoint
  {
    OFFSET 0 0 0
    CHANNELS 3 Zrotation Xrotation Yrotation
    JOINT RightUpLeg
    {
      OFFSET -2.97451 -2.05947 0
      CHANNELS 3 Zrotation Xrotation Yrotation
      JOINT RightLeg
      {
        OFFSET 0 -16.9295 0
        CHANNELS 3 Zrotation Xrotation Yrotation
        JOINT RightFoot
        {
          OFFSET 0 -12.3084 0
          CHANNELS 3 Zrotation Xrotation Yrotation
          JOINT RightToeBase
          {
            OFFSET 0 -1.45952 4.1706
            CHANNELS 3 Zrotation Xrotation Yrotation
            End Site
            {
              OFFSET 0 0.380528 1.88646
            }
          }
        }
      }
    }
  }
  JOINT LeftHipJoint
  {
    OFFSET 0 0 0
    CHANNELS 3 Zrotation Xrotation Yrotation
    JOINT LeftUpLeg
    {
      OFFSET 2.97451 -2.05947 0
      CHANNELS 3 Zrotation Xrotation Yrotation
      JOINT LeftLeg
      {
        OFFSET 0 -16.9295 0
        CHANNELS 3 Zrotation Xrotation Yrotation
        JOINT LeftFoot
        {
          OFFSET 0 -12.3084 0
          CHANNELS 3 Zrotation Xrotation Yrotation
          JOINT LeftToeBase
          {
            OFFSET 0 -1.45952 4.1706
            CHANNELS 3 Zrotation Xrotation Yrotation
            End Site
            {
              OFFSET 0 0.380528 1.88646
            }
          }
        }
      }
    }
  }
  JOINT LowerBack
  {
    OFFSET -0.0036625 0.510784 -2.23482
    CHANNELS 3 Zrotation Xrotation Yrotation
    JOINT Spine
    {
      OFFSET 0.00406798 3.05724 0.271409
      CHANNELS 3 Zrotation Xrotation Yrotation
      JOINT Spine1
      {
        OFFSET 0 3.94532 0.605325
        CHANNELS 3 Zrotation Xrotation Yrotation
        JOINT RightShoulder
        {
          OFFSET -2.46238 6.7817 0.985371
          CHANNELS 3 Zrotation Xrotation Yrotation
          JOINT RightDummyShoulder
          {
            OFFSET 0 0 0
            CHANNELS 3 Zrotation Xrotation Yrotation
            JOINT RightArm
            {
              OFFSET -3.41514 0.382168 0.208038
              CHANNELS 3 Zrotation Xrotation Yrotation
              JOINT RightForeArm
              {
                OFFSET -6.74994 0 -0.448005
                CHANNELS 3 Zrotation Xrotation Yrotation
                JOINT RightHand
                {
                  OFFSET -7.67291 0 0
                  CHANNELS 3 Zrotation Xrotation Yrotation
                  End Site
                  {
                    OFFSET -3.75012 0 0
                  }
                }
              }
            }
          }
        }
        JOINT LeftShoulder
        {
          OFFSET 2.46238 6.7817 0.985371
          CHANNELS 3 Zrotation Xrotation Yrotation
          JOINT LeftDummyShoulder
          {
            OFFSET 0 0 0
            CHANNELS 3 Zrotation Xrotation Yrotation
            JOINT LeftArm
            {
              OFFSET 3.41514 0.382168 0.208038
              CHANNELS 3 Zrotation Xrotation Yrotation
              JOINT LeftForeArm
              {
                OFFSET 6.74994 0 -0.448005
                CHANNELS 3 Zrotation Xrotation Yrotation
                JOINT LeftHand
                {
                  OFFSET 7.67291 0 0
                  CHANNELS 3 Zrotation Xrotation Yrotation
                  End Site
                  {
                    OFFSET 3.75012 0 0
                  }
                }
              }
            }
          }
        }
        JOINT Neck
        {
          OFFSET 0 7.72218 0.649176
          CHANNELS 3 Zrotation Xrotation Yrotation
          JOINT Head
          {
            OFFSET 0 2.8134 0.8129
            CHANNELS 3 Zrotation Xrotation Yrotation
            End Site
            {
              OFFSET 0 3.18746 0.758962
            }
          }
        }
      }
    }
  }
}
MOTION
Frames:	10
Frame Time:	0.0333333
8.44897e-08 33.9607 5.76992e-17 7.06225e-31 0 -0 0 0 -0 -0 -0.0186184 -0 4.20493e-06 0.0442363 -1.3664e-09 -4.20492e-06 -0.0256179 -1.88009e-09 -3.34436e-35 0 -0 0 0 -0 -0 -0.0186184 -0 4.20493e-06 0.0442363 -1.3664e-09 -4.20492e-06 -0.0256179 -1.88009e-09 -3.34436e-35 0 -0 0 0 -0 0 0 -0 0 0 -0 0 0 -0 0 0 -0 1.35539e-05 -3.43915e-06 1.10991e-05 -1.35539e-05 -3.39104e-06 -2.07584e-05 -5.75742e-13 6.83019e-06 9.65935e-06 0 0 -0 0 0 -0 -1.35397e-05 -3.8658e-06 -1.53679e-05 1.35397e-05 3.86581e-06 2.50273e-05 1.22773e-28 -3.27688e-28 -9.65935e-06 0 0 -0 0 0 -0 
-6.25821 34.1859 -40.2463 -7.19859 -11.4413 -21.7917 1.59028e-15 0 6.36111e-15 -2.60239 -6.65991 -6.52238 0.000298005 20.1848 0.0269699 2.68267 -4.21966 -11.6598 -2.97025e-06 -22.8362 -4.64599e-06 1.59028e-15 0 6.36111e-15 0.0700789 19.3417 5.85888 -2.94405e-06 8.85851 0.00192223 1.19314 -13.552 6.10998 -5.70871e-08 -10.3963 -3.04172e-06 1.59028e-15 0 6.36111e-15 2.72335 7.14857 2.92665 5.13356 14.4206 5.57152 -19.0747 -2.68477 -9.03604 3.57812e-15 7.95139e-16 -6.36111e-15 75.4318 35.0513 11.6427 -4.73386e-05 1.82011e-05 99.8113 -18.449 -28.9936 -16.8131 17.6837 8.51991 -11.6155 3.18055e-15 3.18055e-15 -6.36111e-15 -80.714 21.2243 -18.058 5.60703e-05 7.86266e-06 -19.3451 6.6192 -0.0129236 -2.45599 19.8722 16.4968 -2.80565 14.4539 6.07954 16.0091 
-6.55124 34.0184 -39.4021 -6.35824 -11.4278 -20.7929 -7.95139e-16 -1.59028e-15 6.36111e-15 -3.03955 -6.37411 -8.96709 0.000167674 10.5242 0.0137659 2.13994 -3.08784 -6.98824 -1.0275e-05 -23.0564 -1.18755e-05 -7.95139e-16 -1.59028e-15 6.36111e-15 -0.463582 20.5074 5.57735 -0.00455877 9.24151 0.00185408 1.07073 -14.9688 5.68192 1.69593e-06 -10.3932 -2.61369e-06 -7.95139e-16 -1.59028e-15 6.36111e-15 2.4302 7.12187 2.72197 4.56813 14.3465 5.19619 -19.1445 -2.30097 -9.47853 -1.98785e-15 3.18055e-15 -0 75.9503 34.5747 11.2998 -3.20089e-05 1.77866e-05 99.5857 -18.9252 -28.6714 -17.1783 18.5036 8.06269 -12.2085 1.59028e-15 0 -3.18055e-15 -80.0682 22.1402 -19.7151 4.62639e-05 -3.88801e-06 -21.4794 7.31982 -1.00277 -2.60139 21.7402 17.0394 -5.26414 15.0729 6.72384 12.4566 
-6.91962 33.8486 -38.5149 -5.8462 -11.1732 -19.88 0 3.18055e-15 -0 -2.83894 -6.37553 -10.5259 -0.000437145 3.57378 0.0104785 2.54564 -2.24305 -2.99184 -5.36967e-06 -23.6004 -9.18025e-06 0 3.18055e-15 -0 -0.424889 21.6341 5.45241 -0.00517482 9.7168 0.00146786 0.939275 -16.3149 5.06751 -1.91647e-06 -10.1267 -6.55131e-06 0 3.18055e-15 -0 2.26923 7.02234 2.5316 4.27022 14.1338 4.83443 -18.8755 -1.84894 -9.83192 -2.38542e-15 -1.59028e-15 -3.18055e-15 76.2459 33.9189 10.7527 4.5983e-05 -2.50272e-06 99.4402 -18.1797 -28.2923 -16.889 19.1896 7.62982 -12.5811 0 3.18055e-15 -0 -79.1801 23.4866 -21.0621 8.11613e-05 3.9372e-06 -24.0658 8.01235 -2.04943 -3.53099 22.9751 16.8812 -7.3382 14.9975 6.6651 9.1953 
-7.36242 33.6837 -37.5803 -5.85116 -10.7724 -18.869 -7.95139e-16 0 -0 -2.1039 -6.58366 -9.86254 -0.000778767 0.864242 0.00862015 2.12009 -2.68229 -1.46464 3.64501e-06 -23.8829 -2.25426e-06 -7.95139e-16 0 -0 0.391748 22.9605 4.99509 0.0022081 9.95718 -6.10705e-05 0.616334 -17.5473 4.52344 9.44539e-07 -10.2379 2.7051e-07 -7.95139e-16 0 -0 2.31917 6.86355 2.31231 4.40369 13.8106 4.38898 -18.4882 -1.54796 -10.1089 -1.19271e-15 0 -0 76.6212 33.4471 9.80521 1.94361e-07 -2.42768e-06 99.1547 -18.276 -28.6858 -16.9308 19.6499 6.96941 -12.802 -4.77083e-15 3.18055e-15 -9.54166e-15 -78.1333 25.2188 -21.9821 -7.63638e-05 -1.07243e-05 -26.8596 8.52422 -1.70682 -3.83513 23.4394 16.1262 -8.78018 15.12 6.17681 6.75317 
-7.86771 33.4907 -36.5695 -5.86024 -10.3903 -17.8263 -7.95139e-16 0 -0 -1.48734 -6.88342 -7.43121 0.000363576 2.5675 0.00476332 0.929508 -3.91469 -2.96886 3.74194e-06 -23.3745 4.38361e-06 -7.95139e-16 0 -0 1.30454 24.7221 3.96305 0.00035343 9.71841 -0.00156523 0.289064 -18.5717 4.48998 1.03982e-06 -10.4841 -2.10931e-06 -7.95139e-16 0 -0 2.37424 6.5741 2.06772 4.55224 13.2249 3.89667 -18.1529 -1.11681 -10.1867 -3.97569e-16 0 -6.36111e-15 76.9552 33.0514 8.78041 -3.14387e-05 1.18199e-05 98.9125 -18.3472 -28.725 -17.0504 20.1313 6.254 -12.9316 5.56597e-15 -3.18055e-15 -0 -77.3581 27.1226 -22.3513 1.91286e-06 3.30107e-06 -29.4574 8.9662 -1.5705 -3.94914 23.409 14.8789 -9.84143 15.278 5.61101 4.65874 
-8.47322 33.301 -35.503 -6.12585 -9.79228 -16.6267 -3.97569e-16 1.59028e-15 -6.36111e-15 -0.401468 -7.40753 -5.34268 -0.00305563 7.38391 -0.00683128 -0.969392 -4.72562 -5.93686 -2.39109e-06 -23.5354 -6.63205e-06 -3.97569e-16 1.59028e-15 -6.36111e-15 2.97403 26.1617 3.50467 3.80482e-05 10.0334 -0.00484703 -0.573667 -19.5203 3.59859 9.12109e-07 -10.4534 3.41497e-06 -3.97569e-16 1.59028e-15 -6.36111e-15 2.45669 6.12419 1.78882 4.76026 12.3172 3.33934 -17.5885 -0.84764 -10.3991 1.59028e-15 1.59028e-15 -0 77.3485 32.9951 7.53891 4.50938e-05 9.10229e-06 98.5766 -18.4461 -28.3889 -17.1296 20.4954 5.53624 -12.9492 1.98785e-15 -3.97569e-15 3.18055e-15 -76.5831 29.0492 -22.2017 -1.8588e-05 -4.58978e-06 -31.7557 8.87056 -2.0932 -4.12737 23.4691 13.1553 -10.573 15.5462 4.89015 3.3566 
-9.18357 33.2307 -34.4294 -7.46173 -9.12529 -15.3437 4.41391e-32 1.59028e-15 -1.59028e-15 2.03887 -7.64406 -2.96253 6.50667e-05 10.838 -0.0281533 -3.05975 -0.803608 -9.63686 -1.45057e-06 -23.2159 -2.30851e-06 4.41391e-32 1.59028e-15 -1.59028e-15 6.35615 27.0631 2.98783 2.72047e-05 11.7695 -0.0102588 -2.17522 -19.7357 1.97445 -4.33636e-08 -11.1177 -2.64076e-06 4.41391e-32 1.59028e-15 -1.59028e-15 2.82293 5.7598 1.4842 5.53685 11.5852 2.70062 -16.2924 -0.952215 -10.8221 -3.97569e-16 -7.95139e-16 -0 77.3168 32.8667 6.24947 -3.16898e-05 1.68762e-05 97.9466 -17.4435 -28.8642 -17.1091 19.7864 5.08964 -13.0322 -3.18055e-15 3.18055e-15 -0 -75.1319 30.1495 -21.6696 9.30092e-06 -1.45648e-05 -33.7876 8.37627 -1.88269 -4.13392 23.466 10.6201 -11.2108 15.8628 3.99115 2.55116 
-9.93699 33.2213 -33.2856 -8.48489 -8.79877 -14.2804 1.19271e-15 -1.59028e-15 -3.18055e-15 4.02094 -7.54349 -0.0861767 7.71423e-05 14.5862 -0.0237411 -1.8539 1.27051 -12.4554 1.13853e-06 -23.5344 -3.0759e-06 1.19271e-15 -1.59028e-15 -3.18055e-15 9.26124 27.2679 1.4427 -6.37893e-06 15.4249 -0.0171359 -3.59991 -18.996 1.77638 1.8984e-06 -12.8952 -2.18565e-06 1.19271e-15 -1.59028e-15 -3.18055e-15 3.04237 5.42707 1.19159 6.0114 10.9092 2.10499 -15.6676 -0.693741 -10.9834 3.97569e-16 7.95139e-16 6.36111e-15 77.8652 32.7413 5.18963 -4.5327e-05 -7.39286e-06 96.957 -17.5628 -28.7264 -17.1804 19.267 5.26171 -13.1314 1.98785e-15 -1.59028e-15 -3.18055e-15 -74.3156 30.7531 -20.9965 0.00012215 5.30434e-06 -35.1005 8.84218 -2.14955 -4.02768 23.0469 7.89583 -11.5157 16.2557 2.41486 2.56561 
-10.6703 33.2856 -32.1402 -8.87689 -8.83454 -13.7895 -2.38542e-15 -1.59028e-15 -0 5.09421 -6.56241 -0.249697 -3.19782e-05 17.8107 -0.0268689 -1.83269 -0.067429 -12.9804 1.76706e-06 -23.3318 -5.08809e-07 -2.38542e-15 -1.59028e-15 -0 10.9677 26.3143 0.201327 -6.50463e-06 21.6288 -0.031612 -5.00074 -16.9725 2.28799 -8.48839e-07 -16.2806 -4.52104e-06 -2.38542e-15 -1.59028e-15 -0 2.96571 5.12424 1.02768 5.87404 10.2943 1.79747 -15.745 -0.447199 -10.9153 7.95139e-16 7.95139e-16 -6.36111e-15 79.2947 32.5658 3.84852 3.03054e-05 4.40284e-06 95.5193 -17.1731 -28.0333 -16.8443 19.3691 5.59767 -13.0571 3.18055e-15 -2.38542e-15 3.18055e-15 -74.7446 31.1159 -19.9103 -1.55538e-05 -5.21616e-06 -35.1301 8.96074 -3.19559 -4.2341 22.4909 5.30414 -11.5536 16.7016 0.203624 3.00971 
